<svg xmlns="http://www.w3.org/2000/svg" xmlns:xlink="http://www.w3.org/1999/xlink" width="500" zoomAndPan="magnify" viewBox="0 0 375 374.999991" height="500" preserveAspectRatio="xMidYMid meet" version="1.0"><defs><clipPath id="0cff83b9f8"><path d="M 113 25.78125 L 327.910156 25.78125 L 327.910156 291 L 113 291 Z M 113 25.78125 " clip-rule="nonzero"/></clipPath><clipPath id="024427f798"><path d="M 47.410156 84 L 262 84 L 262 349.03125 L 47.410156 349.03125 Z M 47.410156 84 " clip-rule="nonzero"/></clipPath></defs><g clip-path="url(#0cff83b9f8)"><path fill="#ffffff" d="M 154.902344 88.042969 L 187.496094 69.21875 L 327.53125 150.074219 L 327.53125 106.636719 L 187.496094 25.78125 L 113.546875 68.484375 L 113.546875 113.773438 L 289.917969 215.578125 L 289.917969 290.070312 L 327.53125 268.351562 L 327.53125 187.726562 Z M 154.902344 88.042969 " fill-opacity="1" fill-rule="nonzero"/></g><g clip-path="url(#024427f798)"><path fill="#ffffff" d="M 220.09375 286.945312 L 187.496094 305.769531 L 47.464844 224.914062 L 47.464844 268.351562 L 187.496094 349.207031 L 261.449219 306.503906 L 261.449219 261.214844 L 85.078125 159.410156 L 85.078125 84.917969 L 47.464844 106.636719 L 47.464844 187.261719 Z M 220.09375 286.945312 " fill-opacity="1" fill-rule="nonzero"/></g></svg>